<svg height="512pt" viewBox="-55 0 512 512.00012" width="512pt" xmlns="http://www.w3.org/2000/svg"><g fill-rule="evenodd"><path d="m176.941406 318.28125 166.9375-201.195312h-333.878906l83.46875 100.597656zm0 0" fill="#c0f4f1"/><path d="m296.996094 173.589844h-240.113282l36.585938 44.09375 83.46875 100.597656 83.472656-100.597656zm0 0" fill="#ff9696"/><path d="m176.941406 453.300781c35.011719 0 65.40625 19.742188 80.675782 48.699219h-161.355469c15.273437-28.957031 45.667969-48.699219 80.679687-48.699219zm0 0" fill="#c0f4f1"/><path d="m54.328125 81.503906c14.417969 0 26.179687-11.757812 26.179687-26.175781s-11.761718-26.175781-26.179687-26.175781c-14.414063 0-26.175781 11.757812-26.175781 26.175781s11.761718 26.175781 26.175781 26.175781zm0 0" fill="#a0e557"/><path d="m393.96875 43.128906-96.378906-23.796875c-4.558594-1.132812-9.28125 1.070313-11.363282 5.28125l-40.730468 82.472657h-149.882813l-15.398437-26.519532c6.359375-6.523437 10.289062-15.429687 10.289062-25.238281 0-19.949219-16.226562-36.175781-36.175781-36.175781-2.898437 0-5.71875.351562-8.421875 1l-8.535156-15.078125c-2.71875-4.804688-8.820313-6.496094-13.625-3.773438-4.808594 2.71875-6.5 8.820313-3.777344 13.625l8.542969 15.09375c-6.402344 6.53125-10.359375 15.464844-10.359375 25.308594 0 19.949219 16.230468 36.179687 36.179687 36.179687 2.933594 0 5.78125-.359374 8.515625-1.023437l9.640625 16.601563h-62.488281c-3.878906 0-7.402344 2.242187-9.050781 5.75-1.648438 3.507812-1.121094 7.652343 1.355469 10.636718l164.636718 198.421875v121.902344c-33.640625 3.3125-63.519531 23.1875-79.523437 53.539063-1.632813 3.101562-1.527344 6.828124.285156 9.828124 1.808594 3 5.058594 4.835938 8.5625 4.835938h161.351563.023437c5.519531 0 10-4.476562 10-10 0-1.917969-.542969-3.707031-1.476563-5.230469-16.078124-30.03125-45.792968-49.679687-79.222656-52.972656v-121.90625l26.945313-32.476563c3.523437-4.25 2.9375-10.554687-1.3125-14.078124-4.25-3.527344-10.554688-2.941407-14.082031 1.308593l-21.550782 25.976563-98.765625-119.03125h44.472657c.007812 0 .019531.003906.027343.003906.011719 0 .019531-.003906.03125-.003906h101.054688c.011719 0 .023437.003906.035156.003906.007813 0 .019531-.003906.027344-.003906h51.882812l-26.128906 31.492187c-3.527344 4.25-2.941406 10.554688 1.308594 14.078125 4.253906 3.527344 10.554687 2.941406 14.082031-1.308594l86.605469-104.378906c2.476562-2.984375 3.003906-7.128906 1.355469-10.636718-1.648438-3.507813-5.175782-5.75-9.050782-5.75h-76.078125l32.800781-66.410157 88.570313 21.867188c5.359375 1.328125 10.78125-1.949219 12.105469-7.308594 1.324218-5.363281-1.949219-10.78125-7.308594-12.105469zm-355.816406 12.199219c0-8.917969 7.257812-16.175781 16.175781-16.175781 8.921875 0 16.179687 7.257812 16.179687 16.175781 0 8.921875-7.257812 16.175781-16.179687 16.175781-8.917969 0-16.175781-7.253906-16.175781-16.175781zm197.464844 71.757813-18.027344 36.503906h-89.164063l-21.195312-36.503906zm3.269531 364.914062h-123.890625c15.238281-18.019531 37.730468-28.699219 61.945312-28.699219s46.707032 10.679688 61.945313 28.699219zm-207.597657-364.914062h52.8125l21.195313 36.503906h-43.71875zm291.300782 0-30.289063 36.503906h-52.40625l18.027344-36.503906zm0 0"/><path d="m221.730469 252.246094c0 5.507812 4.492187 10 10 10 5.507812 0 10-4.492188 10-10 0-5.507813-4.492188-10-10-10-5.507813 0-10 4.492187-10 10zm0 0"/></g></svg>