<svg height="512pt" viewBox="-125 0 512 512" width="512pt" xmlns="http://www.w3.org/2000/svg"><path d="m189.789062 119.511719-29.578124-5.023438 19.457031-114.488281h82.667969v30h-57.335938zm0 0" fill="#009100"/><path d="m0 102h247v410h-247zm0 0" fill="#cae8f9"/><path d="m123.5 102h123.5v410h-123.5zm0 0" fill="#b1dcff"/><path d="m247 200.460938v311.539062h-247v-334.628906c5.589844-2.972656 11.988281-5.792969 19.121094-8.03125 24.097656-7.570313 61.179687-9.949219 104.378906 19.019531 2.988281 2.011719 6.019531 4.171875 9.070312 6.492187 29.601563 22.488282 58.640626 29.476563 86.320313 20.777344 13.148437-4.128906 22.878906-10.898437 28.109375-15.167968zm0 0" fill="#ffa900"/><g fill="#ffec97"><path d="m43.136719 377.476562h29.933593v29.933594h-29.933593zm0 0"/><path d="m82.902344 425.757812h29.933594v29.933594h-29.933594zm0 0"/><path d="m30.636719 440.726562h29.933593v29.929688h-29.933593zm0 0"/></g><path d="m247 200.460938v311.539062h-123.5v-323.640625c2.988281 2.011719 6.019531 4.171875 9.070312 6.492187 29.601563 22.488282 58.640626 29.476563 86.320313 20.777344 13.148437-4.128906 22.878906-10.898437 28.109375-15.167968zm0 0" fill="#f80"/></svg>